<?xml version="1.0" encoding="UTF-8" standalone="no"?>
<!DOCTYPE svg PUBLIC "-//W3C//DTD SVG 1.1//EN"
 "http://www.w3.org/Graphics/SVG/1.1/DTD/svg11.dtd">
<!-- Generated by graphviz version 2.43.0 (0)
 -->
<!-- Title: robowflex::Robot Pages: 1 -->
<svg width="549pt" height="84pt"
 viewBox="0.00 0.00 549.00 84.00" xmlns="http://www.w3.org/2000/svg" xmlns:xlink="http://www.w3.org/1999/xlink">
<g id="graph0" class="graph" transform="scale(1 1) rotate(0) translate(4 80)">
<title>robowflex::Robot</title>
<!-- Node1 -->
<g id="node1" class="node">
<title>Node1</title>
<g id="a_node1"><a xlink:title="Loads information about a robot and maintains information about a robot&#39;s state.">
<polygon fill="#bfbfbf" stroke="black" points="228,-56.5 228,-75.5 327,-75.5 327,-56.5 228,-56.5"/>
<text text-anchor="middle" x="277.5" y="-63.5" font-family="Roboto" font-size="10.00">robowflex::Robot</text>
</a>
</g>
</g>
<!-- Node2 -->
<g id="node2" class="node">
<title>Node2</title>
<g id="a_node2"><a xlink:href="classrobowflex_1_1FetchRobot.html" target="_top" xlink:title="Convenience class that describes the default setup for Fetch. Will first attempt to load configuratio...">
<polygon fill="none" stroke="black" points="0,-0.5 0,-19.5 125,-19.5 125,-0.5 0,-0.5"/>
<text text-anchor="middle" x="62.5" y="-7.5" font-family="Roboto" font-size="10.00">robowflex::FetchRobot</text>
</a>
</g>
</g>
<!-- Node1&#45;&gt;Node2 -->
<g id="edge1" class="edge">
<title>Node1&#45;&gt;Node2</title>
<path fill="none" stroke="midnightblue" d="M233.54,-53.96C192.93,-43.76 133.46,-28.82 96.41,-19.52"/>
<polygon fill="midnightblue" stroke="midnightblue" points="232.88,-57.4 243.43,-56.44 234.59,-50.61 232.88,-57.4"/>
</g>
<!-- Node3 -->
<g id="node3" class="node">
<title>Node3</title>
<g id="a_node3"><a xlink:href="classrobowflex_1_1ParamRobot.html" target="_top" xlink:title="Loads information about a robot from the parameter server.">
<polygon fill="none" stroke="black" points="143.5,-0.5 143.5,-19.5 273.5,-19.5 273.5,-0.5 143.5,-0.5"/>
<text text-anchor="middle" x="208.5" y="-7.5" font-family="Roboto" font-size="10.00">robowflex::ParamRobot</text>
</a>
</g>
</g>
<!-- Node1&#45;&gt;Node3 -->
<g id="edge2" class="edge">
<title>Node1&#45;&gt;Node3</title>
<path fill="none" stroke="midnightblue" d="M258.46,-50.1C246.04,-40.38 230.26,-28.03 219.79,-19.83"/>
<polygon fill="midnightblue" stroke="midnightblue" points="256.38,-52.92 266.41,-56.32 260.7,-47.4 256.38,-52.92"/>
</g>
<!-- Node4 -->
<g id="node4" class="node">
<title>Node4</title>
<g id="a_node4"><a xlink:href="classrobowflex_1_1R2Robot.html" target="_top" xlink:title="Convenience class that describes the default setup for R2 (R2C6 full).">
<polygon fill="none" stroke="black" points="291.5,-0.5 291.5,-19.5 403.5,-19.5 403.5,-0.5 291.5,-0.5"/>
<text text-anchor="middle" x="347.5" y="-7.5" font-family="Roboto" font-size="10.00">robowflex::R2Robot</text>
</a>
</g>
</g>
<!-- Node1&#45;&gt;Node4 -->
<g id="edge3" class="edge">
<title>Node1&#45;&gt;Node4</title>
<path fill="none" stroke="midnightblue" d="M296.81,-50.1C309.41,-40.38 325.43,-28.03 336.05,-19.83"/>
<polygon fill="midnightblue" stroke="midnightblue" points="294.53,-47.44 288.75,-56.32 298.8,-52.99 294.53,-47.44"/>
</g>
<!-- Node5 -->
<g id="node5" class="node">
<title>Node5</title>
<g id="a_node5"><a xlink:href="classrobowflex_1_1UR5Robot.html" target="_top" xlink:title="Convenience class that describes the default setup for UR5 (with robotiq gripper and load cell) Will ...">
<polygon fill="none" stroke="black" points="422,-0.5 422,-19.5 541,-19.5 541,-0.5 422,-0.5"/>
<text text-anchor="middle" x="481.5" y="-7.5" font-family="Roboto" font-size="10.00">robowflex::UR5Robot</text>
</a>
</g>
</g>
<!-- Node1&#45;&gt;Node5 -->
<g id="edge4" class="edge">
<title>Node1&#45;&gt;Node5</title>
<path fill="none" stroke="midnightblue" d="M319.7,-53.83C358.22,-43.63 414.32,-28.78 449.33,-19.52"/>
<polygon fill="midnightblue" stroke="midnightblue" points="318.6,-50.5 309.82,-56.44 320.39,-57.27 318.6,-50.5"/>
</g>
</g>
</svg>
