<?xml version="1.0" encoding="UTF-8" standalone="no"?>
<!DOCTYPE svg PUBLIC "-//W3C//DTD SVG 1.1//EN"
 "http://www.w3.org/Graphics/SVG/1.1/DTD/svg11.dtd">
<!-- Generated by graphviz version 2.43.0 (0)
 -->
<!-- Title: Graphical Class Hierarchy Pages: 1 -->
<svg width="375pt" height="116pt"
 viewBox="0.00 0.00 375.00 116.00" xmlns="http://www.w3.org/2000/svg" xmlns:xlink="http://www.w3.org/1999/xlink">
<g id="graph0" class="graph" transform="scale(1 1) rotate(0) translate(4 112)">
<title>Graphical Class Hierarchy</title>
<!-- Node187 -->
<g id="node1" class="node">
<title>Node187</title>
<g id="a_node1"><a xlink:title=" ">
<polygon fill="none" stroke="#bfbfbf" points="24,-88.5 24,-107.5 128,-107.5 128,-88.5 24,-88.5"/>
<text text-anchor="middle" x="76" y="-95.5" font-family="Roboto" font-size="10.00">GoalLazySamples</text>
</a>
</g>
</g>
<!-- Node3 -->
<g id="node2" class="node">
<title>Node3</title>
<g id="a_node2"><a xlink:href="classrobowflex_1_1darts_1_1TSRGoal.html" target="_top" xlink:title="A sampleable goal region for OMPL for a set of TSRs. Samples goals in a separate thread using a clone...">
<polygon fill="none" stroke="black" points="206,-85.5 206,-104.5 349,-104.5 349,-85.5 206,-85.5"/>
<text text-anchor="middle" x="277.5" y="-92.5" font-family="Roboto" font-size="10.00">robowflex::darts::TSRGoal</text>
</a>
</g>
</g>
<!-- Node187&#45;&gt;Node3 -->
<g id="edge1" class="edge">
<title>Node187&#45;&gt;Node3</title>
<path fill="none" stroke="midnightblue" d="M138.37,-97.08C159.74,-96.76 183.9,-96.39 205.96,-96.06"/>
<polygon fill="midnightblue" stroke="midnightblue" points="138.06,-93.58 128.12,-97.23 138.17,-100.58 138.06,-93.58"/>
</g>
<!-- Node186 -->
<g id="node3" class="node">
<title>Node186</title>
<g id="a_node3"><a xlink:title=" ">
<polygon fill="none" stroke="#bfbfbf" points="10.5,-0.5 10.5,-19.5 141.5,-19.5 141.5,-0.5 10.5,-0.5"/>
<text text-anchor="middle" x="76" y="-7.5" font-family="Roboto" font-size="10.00">GoalSampleableRegion</text>
</a>
</g>
</g>
<!-- Node1 -->
<g id="node4" class="node">
<title>Node1</title>
<g id="a_node4"><a xlink:href="classrobowflex_1_1darts_1_1JointRegionGoal.html" target="_top" xlink:title="A joint space goal volume.">
<polygon fill="none" stroke="black" points="188,-3.5 188,-22.5 367,-22.5 367,-3.5 188,-3.5"/>
<text text-anchor="middle" x="277.5" y="-10.5" font-family="Roboto" font-size="10.00">robowflex::darts::JointRegionGoal</text>
</a>
</g>
</g>
<!-- Node186&#45;&gt;Node1 -->
<g id="edge2" class="edge">
<title>Node186&#45;&gt;Node1</title>
<path fill="none" stroke="midnightblue" d="M151.91,-11.13C163.61,-11.3 175.79,-11.49 187.76,-11.67"/>
<polygon fill="midnightblue" stroke="midnightblue" points="151.82,-7.62 141.77,-10.97 151.72,-14.62 151.82,-7.62"/>
</g>
<!-- Node0 -->
<g id="node5" class="node">
<title>Node0</title>
<g id="a_node5"><a xlink:href="classrobowflex_1_1darts_1_1ConstraintExtractor.html" target="_top" xlink:title="Helper class to manage extracting states from a possibly constrained state space.">
<polygon fill="none" stroke="black" points="0,-39 0,-69 152,-69 152,-39 0,-39"/>
<text text-anchor="start" x="8" y="-57" font-family="Roboto" font-size="10.00">robowflex::darts::Constraint</text>
<text text-anchor="middle" x="76" y="-46" font-family="Roboto" font-size="10.00">Extractor</text>
</a>
</g>
</g>
<!-- Node0&#45;&gt;Node3 -->
<g id="edge5" class="edge">
<title>Node0&#45;&gt;Node3</title>
<path fill="none" stroke="midnightblue" d="M159.95,-71.05C183.89,-75.97 209.15,-81.16 230.01,-85.45"/>
<polygon fill="midnightblue" stroke="midnightblue" points="160.65,-67.62 150.15,-69.03 159.24,-74.48 160.65,-67.62"/>
</g>
<!-- Node0&#45;&gt;Node1 -->
<g id="edge3" class="edge">
<title>Node0&#45;&gt;Node1</title>
<path fill="none" stroke="midnightblue" d="M159.95,-36.95C183.89,-32.03 209.15,-26.84 230.01,-22.55"/>
<polygon fill="midnightblue" stroke="midnightblue" points="159.24,-33.52 150.15,-38.97 160.65,-40.38 159.24,-33.52"/>
</g>
<!-- Node2 -->
<g id="node6" class="node">
<title>Node2</title>
<g id="a_node6"><a xlink:href="classrobowflex_1_1darts_1_1PlanBuilder.html" target="_top" xlink:title="A helper class to setup common OMPL structures for planning.">
<polygon fill="none" stroke="black" points="199,-44.5 199,-63.5 356,-63.5 356,-44.5 199,-44.5"/>
<text text-anchor="middle" x="277.5" y="-51.5" font-family="Roboto" font-size="10.00">robowflex::darts::PlanBuilder</text>
</a>
</g>
</g>
<!-- Node0&#45;&gt;Node2 -->
<g id="edge4" class="edge">
<title>Node0&#45;&gt;Node2</title>
<path fill="none" stroke="midnightblue" d="M162.24,-54C174.37,-54 186.79,-54 198.77,-54"/>
<polygon fill="midnightblue" stroke="midnightblue" points="162.14,-50.5 152.14,-54 162.14,-57.5 162.14,-50.5"/>
</g>
</g>
</svg>
