<?xml version="1.0" encoding="UTF-8" standalone="no"?>
<!DOCTYPE svg PUBLIC "-//W3C//DTD SVG 1.1//EN"
 "http://www.w3.org/Graphics/SVG/1.1/DTD/svg11.dtd">
<!-- Generated by graphviz version 2.43.0 (0)
 -->
<!-- Title: Graphical Class Hierarchy Pages: 1 -->
<svg width="443pt" height="137pt"
 viewBox="0.00 0.00 443.00 137.00" xmlns="http://www.w3.org/2000/svg" xmlns:xlink="http://www.w3.org/1999/xlink">
<g id="graph0" class="graph" transform="scale(1 1) rotate(0) translate(4 133)">
<title>Graphical Class Hierarchy</title>
<!-- Node192 -->
<g id="node1" class="node">
<title>Node192</title>
<g id="a_node1"><a xlink:title=" ">
<polygon fill="none" stroke="#bfbfbf" points="0,-55 0,-74 80,-74 80,-55 0,-55"/>
<text text-anchor="middle" x="40" y="-62" font-family="Roboto" font-size="10.00">ImGuiWidget</text>
</a>
</g>
</g>
<!-- Node0 -->
<g id="node2" class="node">
<title>Node0</title>
<g id="a_node2"><a xlink:href="classrobowflex_1_1darts_1_1Widget.html" target="_top" xlink:title="Abstract class for IMGUI Widget.">
<polygon fill="none" stroke="black" points="116,-55 116,-74 252,-74 252,-55 116,-55"/>
<text text-anchor="middle" x="184" y="-62" font-family="Roboto" font-size="10.00">robowflex::darts::Widget</text>
</a>
</g>
</g>
<!-- Node192&#45;&gt;Node0 -->
<g id="edge1" class="edge">
<title>Node192&#45;&gt;Node0</title>
<path fill="none" stroke="midnightblue" d="M90.35,-64.5C98.6,-64.5 107.28,-64.5 115.88,-64.5"/>
<polygon fill="midnightblue" stroke="midnightblue" points="90.18,-61 80.18,-64.5 90.18,-68 90.18,-61"/>
</g>
<!-- Node1 -->
<g id="node3" class="node">
<title>Node1</title>
<g id="a_node3"><a xlink:href="classrobowflex_1_1darts_1_1TSREditWidget.html" target="_top" xlink:title="IMGUI widget to design TSRs.">
<polygon fill="none" stroke="black" points="292,-98.5 292,-128.5 431,-128.5 431,-98.5 292,-98.5"/>
<text text-anchor="start" x="300" y="-116.5" font-family="Roboto" font-size="10.00">robowflex::darts::TSREdit</text>
<text text-anchor="middle" x="361.5" y="-105.5" font-family="Roboto" font-size="10.00">Widget</text>
</a>
</g>
</g>
<!-- Node0&#45;&gt;Node1 -->
<g id="edge2" class="edge">
<title>Node0&#45;&gt;Node1</title>
<path fill="none" stroke="midnightblue" d="M228.97,-76.78C252.53,-83.35 281.74,-91.51 306.64,-98.46"/>
<polygon fill="midnightblue" stroke="midnightblue" points="229.83,-73.38 219.25,-74.06 227.95,-80.12 229.83,-73.38"/>
</g>
<!-- Node2 -->
<g id="node4" class="node">
<title>Node2</title>
<g id="a_node4"><a xlink:href="classrobowflex_1_1darts_1_1TSRSolveWidget.html" target="_top" xlink:title="Class for solving a set of TSRs.">
<polygon fill="none" stroke="black" points="288,-49.5 288,-79.5 435,-79.5 435,-49.5 288,-49.5"/>
<text text-anchor="start" x="296" y="-67.5" font-family="Roboto" font-size="10.00">robowflex::darts::TSRSolve</text>
<text text-anchor="middle" x="361.5" y="-56.5" font-family="Roboto" font-size="10.00">Widget</text>
</a>
</g>
</g>
<!-- Node0&#45;&gt;Node2 -->
<g id="edge3" class="edge">
<title>Node0&#45;&gt;Node2</title>
<path fill="none" stroke="midnightblue" d="M262.36,-64.5C270.85,-64.5 279.46,-64.5 287.89,-64.5"/>
<polygon fill="midnightblue" stroke="midnightblue" points="262.1,-61 252.1,-64.5 262.1,-68 262.1,-61"/>
</g>
<!-- Node3 -->
<g id="node5" class="node">
<title>Node3</title>
<g id="a_node5"><a xlink:href="classrobowflex_1_1darts_1_1WindowWidget.html" target="_top" xlink:title="IMGUI widget to add interactive GUI elements programmatically.">
<polygon fill="none" stroke="black" points="291.5,-0.5 291.5,-30.5 431.5,-30.5 431.5,-0.5 291.5,-0.5"/>
<text text-anchor="start" x="299.5" y="-18.5" font-family="Roboto" font-size="10.00">robowflex::darts::Window</text>
<text text-anchor="middle" x="361.5" y="-7.5" font-family="Roboto" font-size="10.00">Widget</text>
</a>
</g>
</g>
<!-- Node0&#45;&gt;Node3 -->
<g id="edge4" class="edge">
<title>Node0&#45;&gt;Node3</title>
<path fill="none" stroke="midnightblue" d="M228.97,-52.22C252.53,-45.65 281.74,-37.49 306.64,-30.54"/>
<polygon fill="midnightblue" stroke="midnightblue" points="227.95,-48.88 219.25,-54.94 229.83,-55.62 227.95,-48.88"/>
</g>
</g>
</svg>
