<?xml version="1.0" encoding="UTF-8" standalone="no"?>
<!DOCTYPE svg PUBLIC "-//W3C//DTD SVG 1.1//EN"
 "http://www.w3.org/Graphics/SVG/1.1/DTD/svg11.dtd">
<!-- Generated by graphviz version 2.43.0 (0)
 -->
<!-- Title: Graphical Class Hierarchy Pages: 1 -->
<svg width="273pt" height="142pt"
 viewBox="0.00 0.00 273.00 142.00" xmlns="http://www.w3.org/2000/svg" xmlns:xlink="http://www.w3.org/1999/xlink">
<g id="graph0" class="graph" transform="scale(1 1) rotate(0) translate(4 138)">
<title>Graphical Class Hierarchy</title>
<!-- Node0 -->
<g id="node1" class="node">
<title>Node0</title>
<g id="a_node1"><a xlink:href="classrobowflex_1_1Robot.html" target="_top" xlink:title="Loads information about a robot and maintains information about a robot&#39;s state.">
<polygon fill="none" stroke="black" points="0,-57.5 0,-76.5 99,-76.5 99,-57.5 0,-57.5"/>
<text text-anchor="middle" x="49.5" y="-64.5" font-family="Roboto" font-size="10.00">robowflex::Robot</text>
</a>
</g>
</g>
<!-- Node1 -->
<g id="node2" class="node">
<title>Node1</title>
<g id="a_node2"><a xlink:href="classrobowflex_1_1FetchRobot.html" target="_top" xlink:title="Convenience class that describes the default setup for Fetch. Will first attempt to load configuratio...">
<polygon fill="none" stroke="black" points="137.5,-114.5 137.5,-133.5 262.5,-133.5 262.5,-114.5 137.5,-114.5"/>
<text text-anchor="middle" x="200" y="-121.5" font-family="Roboto" font-size="10.00">robowflex::FetchRobot</text>
</a>
</g>
</g>
<!-- Node0&#45;&gt;Node1 -->
<g id="edge1" class="edge">
<title>Node0&#45;&gt;Node1</title>
<path fill="none" stroke="midnightblue" d="M79.09,-81.01C95.27,-88.65 116.02,-97.95 135,-105 144.24,-108.43 154.39,-111.68 163.84,-114.48"/>
<polygon fill="midnightblue" stroke="midnightblue" points="80.19,-77.66 69.66,-76.5 77.17,-83.97 80.19,-77.66"/>
</g>
<!-- Node2 -->
<g id="node3" class="node">
<title>Node2</title>
<g id="a_node3"><a xlink:href="classrobowflex_1_1ParamRobot.html" target="_top" xlink:title="Loads information about a robot from the parameter server.">
<polygon fill="none" stroke="black" points="135,-76.5 135,-95.5 265,-95.5 265,-76.5 135,-76.5"/>
<text text-anchor="middle" x="200" y="-83.5" font-family="Roboto" font-size="10.00">robowflex::ParamRobot</text>
</a>
</g>
</g>
<!-- Node0&#45;&gt;Node2 -->
<g id="edge2" class="edge">
<title>Node0&#45;&gt;Node2</title>
<path fill="none" stroke="midnightblue" d="M109.23,-74.51C117.65,-75.59 126.35,-76.7 134.87,-77.79"/>
<polygon fill="midnightblue" stroke="midnightblue" points="109.49,-71.02 99.12,-73.22 108.6,-77.96 109.49,-71.02"/>
</g>
<!-- Node3 -->
<g id="node4" class="node">
<title>Node3</title>
<g id="a_node4"><a xlink:href="classrobowflex_1_1R2Robot.html" target="_top" xlink:title="Convenience class that describes the default setup for R2 (R2C6 full).">
<polygon fill="none" stroke="black" points="144,-38.5 144,-57.5 256,-57.5 256,-38.5 144,-38.5"/>
<text text-anchor="middle" x="200" y="-45.5" font-family="Roboto" font-size="10.00">robowflex::R2Robot</text>
</a>
</g>
</g>
<!-- Node0&#45;&gt;Node3 -->
<g id="edge3" class="edge">
<title>Node0&#45;&gt;Node3</title>
<path fill="none" stroke="midnightblue" d="M109.38,-59.47C120.74,-58.01 132.6,-56.5 143.83,-55.06"/>
<polygon fill="midnightblue" stroke="midnightblue" points="108.6,-56.04 99.12,-60.78 109.49,-62.98 108.6,-56.04"/>
</g>
<!-- Node4 -->
<g id="node5" class="node">
<title>Node4</title>
<g id="a_node5"><a xlink:href="classrobowflex_1_1UR5Robot.html" target="_top" xlink:title="Convenience class that describes the default setup for UR5 (with robotiq gripper and load cell) Will ...">
<polygon fill="none" stroke="black" points="140.5,-0.5 140.5,-19.5 259.5,-19.5 259.5,-0.5 140.5,-0.5"/>
<text text-anchor="middle" x="200" y="-7.5" font-family="Roboto" font-size="10.00">robowflex::UR5Robot</text>
</a>
</g>
</g>
<!-- Node0&#45;&gt;Node4 -->
<g id="edge4" class="edge">
<title>Node0&#45;&gt;Node4</title>
<path fill="none" stroke="midnightblue" d="M79.09,-52.99C95.27,-45.35 116.02,-36.05 135,-29 144.24,-25.57 154.39,-22.32 163.84,-19.52"/>
<polygon fill="midnightblue" stroke="midnightblue" points="77.17,-50.03 69.66,-57.5 80.19,-56.34 77.17,-50.03"/>
</g>
</g>
</svg>
